#tb 0: 1/25
#media_type 0: video
#codec_id 0: rawvideo
#dimensions 0: 1680x832
#sar 0: 0/1
0,          0,          0,        1,  4193280, 0xbd70f1b3
0,          1,          1,        1,  4193280, 0x491104c9
0,          2,          2,        1,  4193280, 0xf600c2c1
0,          3,          3,        1,  4193280, 0x1e3c8e2b
0,          4,          4,        1,  4193280, 0xad275e45
0,          5,          5,        1,  4193280, 0xcd6103d7
0,          6,          6,        1,  4193280, 0x0ec8cfbd
0,          7,          7,        1,  4193280, 0x2f664486
0,          8,          8,        1,  4193280, 0x543eb3fc
